# xmcd
#
# Track frame offsets: 
#        183
#        11350
#        33475
#        81305
#        90650
#        155870
#        188558
#        244340
#        255215
#
# Disc length: 3912 seconds
#
# Revision: 7
# Processed by: cddbd v1.5.2PL0 Copyright (c) Steve Scherf et al.
# Submitted via: ExactAudioCopy v0.99pb4
#
DISCID=660f4609
DTITLE=Carlos Santana - Acapulco Sunrise
DYEAR=1996
DGENRE=Blues-Rock
TTITLE0=Acapulco Sunrise
TTITLE1=Soul Sacrifice
TTITLE2=Fried Neckbones And Home Fries
TTITLE3=Let's Get Ourseves Together
TTITLE4=Jin-Go-Lo-Ba
TTITLE5=As The Years Go By
TTITLE6=La Puesta Del Sol
TTITLE7=Coconut Grove
TTITLE8=Jam In E
EXTD=YEAR: 1996
EXTT0=
EXTT1=
EXTT2=
EXTT3=
EXTT4=
EXTT5=
EXTT6=
EXTT7=
EXTT8=
PLAYORDER=
